<?xml version="1.0" standalone="no"?>
<!DOCTYPE svg PUBLIC "-//W3C//DTD SVG 20010904//EN"
 "http://www.w3.org/TR/2001/REC-SVG-20010904/DTD/svg10.dtd">
<svg version="1.0" xmlns="http://www.w3.org/2000/svg"
 width="727.000000pt" height="727.000000pt" viewBox="0 0 727.000000 727.000000"
 preserveAspectRatio="xMidYMid meet">
<metadata>
Created by potrace 1.14, written by Peter Selinger 2001-2017
</metadata>
<g transform="translate(0.000000,727.000000) scale(0.100000,-0.100000)"
fill="#000000" stroke="none">
<path d="M3410 6817 c-3 -3 -41 -8 -85 -12 -86 -8 -120 -12 -120 -15 0 -1 -13
-3 -30 -5 -38 -4 -95 -14 -117 -21 -9 -3 -26 -7 -37 -9 -45 -10 -58 -14 -116
-29 -33 -10 -64 -18 -70 -19 -5 -2 -14 -5 -20 -8 -8 -5 -35 -13 -80 -25 -5 -1
-35 -14 -66 -27 -31 -14 -60 -23 -63 -20 -3 4 -6 1 -6 -5 0 -7 -5 -12 -11 -12
-14 0 -213 -99 -266 -133 -24 -15 -47 -27 -53 -27 -5 0 -10 -4 -10 -9 0 -5
-15 -16 -32 -24 -18 -9 -43 -25 -55 -37 -13 -11 -23 -18 -23 -15 0 6 -3 3 -51
-38 -14 -12 -43 -35 -65 -52 -74 -58 -218 -197 -288 -279 -22 -27 -56 -65 -73
-85 -44 -49 -168 -229 -210 -305 -220 -396 -322 -785 -320 -1226 1 -675 289
-1321 790 -1775 90 -82 235 -195 298 -232 16 -10 29 -21 29 -25 0 -4 9 -8 19
-8 11 0 21 -4 23 -8 6 -14 183 -109 291 -156 20 -9 52 -23 70 -31 137 -60 450
-141 581 -149 18 -2 36 -4 42 -7 5 -2 33 -4 61 -4 29 0 53 -2 53 -5 0 -7 282
-4 380 5 133 12 145 13 145 15 0 1 14 4 30 6 17 2 66 11 110 20 44 9 85 17 90
18 6 1 15 4 20 7 6 4 24 9 40 13 50 11 211 65 241 81 15 8 31 12 36 9 4 -3 8
0 8 5 0 6 9 11 20 11 11 0 20 5 20 12 0 6 3 9 6 6 9 -10 271 129 302 159 8 7
18 11 23 8 5 -4 9 -1 9 4 0 6 7 11 16 11 8 0 12 5 9 10 -3 6 -1 10 6 10 7 0
37 19 68 42 31 23 61 46 66 50 6 4 46 37 90 74 216 182 408 418 545 669 24 44
54 99 66 122 13 24 21 43 18 43 -4 0 -2 6 4 13 20 24 87 203 126 337 37 128
68 305 81 460 6 83 8 338 1 385 -2 17 -7 57 -10 90 -23 202 -78 424 -151 605
-45 112 -105 241 -116 250 -4 3 -9 14 -13 25 -3 11 -22 44 -41 73 -19 30 -35
56 -35 59 0 14 -122 178 -223 300 -27 34 -156 163 -222 224 -104 95 -381 289
-413 289 -5 0 -12 4 -14 8 -11 28 -403 193 -513 217 -5 1 -28 7 -50 13 -38 11
-77 19 -120 27 -11 2 -45 9 -75 15 -30 6 -73 13 -95 15 -22 2 -56 7 -75 10
-44 8 -393 19 -400 12z m117 -109 c9 5 118 7 118 2 0 0 34 -3 75 -5 75 -5 133
-11 180 -19 14 -3 42 -7 63 -10 159 -24 516 -137 539 -170 4 -6 8 -7 8 -2 0 4
11 1 25 -8 14 -9 25 -14 25 -12 0 3 30 -12 68 -32 37 -21 84 -47 105 -57 20
-11 37 -23 37 -28 0 -4 5 -5 10 -2 6 3 10 2 10 -4 0 -5 8 -12 18 -16 25 -7
168 -112 210 -152 13 -13 27 -23 32 -23 18 0 262 -254 330 -343 39 -51 74 -97
79 -103 20 -25 110 -174 150 -249 56 -106 122 -260 155 -365 43 -136 45 -144
50 -172 2 -15 11 -63 20 -105 56 -285 55 -642 -3 -893 -5 -25 -12 -59 -15 -76
-11 -60 -56 -205 -96 -307 -98 -246 -241 -485 -400 -668 -93 -106 -248 -257
-314 -304 -27 -20 -59 -44 -83 -65 -7 -5 -15 -10 -18 -10 -3 0 -15 -8 -26 -18
-10 -11 -32 -25 -47 -33 -15 -8 -45 -26 -67 -40 -22 -14 -65 -39 -95 -55 -30
-15 -66 -36 -80 -45 -14 -9 -29 -18 -35 -19 -5 -1 -21 -7 -35 -12 -14 -5 -25
-8 -25 -7 0 1 -18 -8 -40 -20 -22 -11 -44 -21 -48 -21 -5 0 -23 -6 -40 -14
-44 -19 -88 -35 -112 -41 -11 -3 -54 -14 -95 -25 -41 -11 -84 -22 -95 -24 -11
-2 -31 -7 -45 -10 -43 -10 -83 -17 -125 -22 -22 -2 -71 -8 -110 -13 -72 -9
-405 -7 -485 3 -68 9 -114 17 -245 42 -38 7 -175 43 -195 51 -8 3 -20 7 -25 8
-54 12 -378 157 -395 176 -3 3 -20 12 -37 20 -18 8 -33 17 -33 21 0 5 -5 8
-11 8 -13 0 -113 67 -214 145 -301 230 -565 571 -710 915 -15 36 -33 79 -40
95 -42 99 -106 347 -121 470 -4 28 -8 52 -10 55 -6 12 -17 210 -17 315 0 99 8
222 17 271 2 11 7 42 10 69 18 133 90 397 136 500 10 22 31 69 46 105 55 126
145 278 250 421 189 258 479 507 754 650 47 24 87 47 88 52 2 4 11 7 21 7 9 0
21 4 26 8 9 8 37 21 142 64 15 6 32 10 36 9 4 0 17 4 28 10 33 17 220 71 227
65 3 -3 11 -1 17 4 7 6 30 12 51 14 22 3 39 5 39 6 0 2 33 8 85 15 25 3 60 8
78 11 19 3 67 7 108 9 42 1 78 6 81 9 3 3 11 2 17 -4 7 -5 17 -6 23 -2z"/>
<path d="M2790 5880 c0 -5 -7 -10 -15 -10 -21 0 -49 -30 -139 -150 -27 -36
-57 -73 -65 -82 -28 -30 -41 -47 -41 -53 0 -5 -38 -51 -72 -87 -10 -10 -17
-19 -15 -21 1 -1 -13 -18 -30 -37 -18 -19 -33 -30 -33 -24 0 6 -13 27 -30 45
-16 19 -30 37 -30 42 0 17 -80 85 -106 91 -29 6 -35 5 -89 -7 -36 -9 -73 -59
-82 -110 -5 -33 12 -80 42 -113 6 -6 19 -23 30 -38 11 -15 45 -60 75 -100 30
-40 66 -87 79 -104 61 -81 144 -89 220 -23 13 12 21 21 18 21 -4 0 1 8 11 18
9 9 39 46 67 82 27 36 54 70 60 76 5 7 19 24 30 40 11 15 29 36 39 46 11 10
16 18 10 18 -5 0 -4 4 3 8 10 6 67 76 136 166 12 16 29 36 37 45 78 83 84 168
18 234 -32 32 -128 52 -128 27z"/>
<path d="M3332 5593 c-18 -6 -35 -13 -36 -15 -55 -75 -61 -127 -23 -183 13
-19 27 -32 30 -28 4 3 7 2 7 -4 0 -6 12 -15 28 -20 26 -9 1651 -11 1682 -2 8
2 22 12 31 21 9 10 18 15 21 12 3 -2 13 11 22 31 35 72 5 159 -64 188 -37 15
-1653 16 -1698 0z"/>
<path d="M2200 4811 c-14 -1 -27 -6 -30 -10 -3 -3 -14 -11 -25 -17 -11 -6 -28
-25 -38 -42 -16 -27 -18 -61 -19 -339 0 -259 2 -314 15 -345 9 -21 20 -38 25
-38 4 0 18 -9 29 -20 19 -17 35 -19 162 -17 78 1 141 -2 141 -6 0 -5 4 -6 9
-3 5 3 87 6 184 7 168 1 177 2 211 25 20 14 36 31 36 39 0 7 5 15 11 17 8 3
12 92 11 313 0 171 -1 312 -2 315 -1 3 -3 13 -5 23 -6 31 -34 66 -68 84 -28
14 -69 17 -327 17 -162 1 -306 -1 -320 -3z m451 -376 c1 -121 -1 -178 -7 -184
-6 -6 -233 -3 -243 4 -5 3 -12 1 -16 -4 -3 -6 -11 -8 -18 -5 -15 5 -17 254 -2
254 5 0 4 5 -2 11 -28 28 -2 34 142 34 l145 0 1 -110z"/>
<path d="M3354 4524 c-51 -13 -70 -27 -91 -67 -36 -70 -6 -151 67 -183 39 -17
1677 -13 1710 5 38 19 63 59 67 110 5 58 -20 100 -73 126 -36 17 -88 18 -838
19 -544 1 -813 -2 -842 -10z"/>
<path d="M2163 3724 c-34 -17 -65 -56 -70 -89 -2 -11 -3 -156 -4 -322 0 -254
2 -306 15 -331 17 -33 69 -75 80 -65 3 3 6 2 6 -3 0 -5 131 -9 315 -9 186 0
315 4 315 9 0 5 3 6 6 3 11 -11 63 32 81 66 14 28 16 73 15 337 0 168 -2 312
-4 320 -6 25 -35 62 -64 81 -24 16 -58 17 -343 18 -270 1 -321 -2 -348 -15z
m237 -255 c0 7 5 9 12 5 14 -9 58 -12 58 -4 0 3 18 5 40 5 22 0 40 -4 40 -9 0
-5 6 -4 13 2 7 6 18 7 25 3 8 -4 24 -6 37 -4 21 5 23 1 27 -49 1 -29 1 -96 -2
-148 l-5 -95 -137 0 c-75 0 -140 4 -144 7 -10 10 -12 98 -3 104 5 2 5 15 1 27
-10 29 -8 138 2 155 6 10 11 10 22 1 11 -9 14 -9 14 0z"/>
<path d="M3350 3450 c-51 -11 -99 -64 -104 -117 -3 -32 23 -90 51 -113 10 -8
34 -20 53 -25 22 -6 333 -10 840 -9 882 1 855 -1 897 60 23 35 29 103 11 135
-14 25 -57 68 -67 67 -3 0 -10 1 -16 3 -18 5 -1640 5 -1665 -1z"/>
<path d="M1389 1506 c-13 -6 -25 -17 -25 -24 -1 -7 -2 -13 -4 -14 -1 -2 -3
-11 -5 -20 -3 -18 -23 -84 -32 -108 -7 -17 -10 -27 -17 -55 -3 -11 -9 -35 -15
-52 -6 -21 -6 -35 0 -39 12 -7 39 14 39 31 0 24 60 131 94 167 43 45 83 67
134 72 50 5 64 -4 58 -35 -3 -13 -5 -24 -6 -24 -1 0 -3 -7 -5 -15 -1 -8 -12
-50 -24 -93 -13 -43 -24 -87 -27 -98 -7 -33 -12 -53 -24 -89 -6 -19 -13 -44
-15 -55 -3 -11 -21 -76 -40 -145 -20 -69 -37 -132 -39 -140 -5 -29 -18 -50
-27 -44 -5 3 -9 2 -9 -3 0 -4 -27 -7 -60 -6 -47 2 -62 -1 -67 -13 -3 -9 -1
-19 5 -23 8 -5 341 -7 390 -2 6 0 12 10 12 20 0 18 -7 20 -58 19 -80 -2 -83 1
-65 70 8 31 17 64 19 72 2 8 15 56 29 105 14 50 28 101 31 115 6 30 9 40 17
60 6 16 56 201 63 235 6 31 27 79 36 86 13 9 75 3 107 -11 25 -10 53 -50 53
-77 0 -4 4 -18 9 -30 5 -14 5 -23 -1 -23 -5 0 -5 -12 0 -30 5 -16 6 -30 2 -30
-4 0 -8 -16 -9 -35 -2 -19 0 -35 5 -35 18 1 31 18 37 50 9 47 10 52 18 75 3
11 8 31 11 45 3 14 8 36 11 50 3 14 9 43 12 64 5 34 4 38 -10 33 -10 -4 -17
-1 -17 5 0 9 -3 9 -11 1 -7 -7 -21 -8 -40 -3 -17 5 -29 5 -29 0 0 -6 -9 -6
-23 -1 -13 5 -30 5 -38 1 -8 -5 -21 -5 -28 0 -8 4 -25 4 -40 0 -14 -4 -35 -4
-46 0 -11 4 -32 4 -47 -1 -17 -4 -28 -4 -28 2 0 6 -7 6 -17 2 -21 -10 -65 -9
-82 1 -6 4 -11 4 -11 -1 0 -4 -11 -8 -25 -8 -14 0 -25 4 -25 8 0 4 -8 4 -17
-2 -9 -5 -26 -5 -38 -1 -14 5 -31 4 -46 -4z"/>
<path d="M2923 1512 c-13 -2 -23 -8 -23 -13 0 -5 0 -12 0 -16 0 -4 24 -8 52
-8 50 -1 53 -2 52 -25 -3 -54 -9 -80 -18 -80 -5 0 -7 -3 -4 -6 3 -3 -3 -38
-14 -77 -22 -77 -22 -76 -33 -124 -9 -38 -22 -43 -30 -10 -9 34 -65 61 -112
53 -21 -3 -44 -7 -50 -8 -7 -1 -13 -5 -13 -10 0 -4 -7 -8 -15 -8 -8 0 -15 -4
-15 -8 0 -5 -11 -15 -25 -22 -13 -7 -22 -17 -19 -22 3 -4 1 -8 -3 -8 -8 0 -67
-86 -69 -99 0 -3 -7 -22 -16 -42 -28 -63 -44 -177 -29 -204 3 -5 6 -17 8 -25
4 -30 26 -58 57 -72 35 -17 118 -16 124 1 2 6 9 11 15 11 13 0 77 70 77 86 0
6 6 11 14 11 8 0 11 -7 9 -18 -7 -26 16 -88 37 -99 21 -11 70 -10 70 2 0 4 6
8 13 8 16 1 43 39 88 126 32 61 35 73 22 78 -9 4 -17 5 -18 4 -9 -14 -35 -78
-35 -87 0 -6 -4 -11 -10 -11 -5 0 -10 -7 -10 -15 0 -8 -4 -15 -10 -15 -5 0
-10 -5 -10 -11 0 -17 -23 -35 -45 -34 -24 0 -27 39 -8 98 7 20 12 39 12 42 1
18 15 62 24 73 6 8 6 12 -3 12 -9 0 -9 4 -3 13 6 6 14 26 18 42 5 17 10 36 12
43 1 6 5 20 7 30 3 9 5 17 6 17 1 0 3 7 5 15 1 8 8 35 15 60 7 25 14 52 15 60
2 8 4 15 5 15 1 0 3 7 5 15 1 8 8 35 16 60 17 60 17 62 23 86 2 12 9 39 15 60
6 22 11 42 11 45 0 9 -41 12 -82 6 -16 -2 -28 0 -28 6 0 7 -4 7 -12 -1 -6 -6
-18 -8 -27 -4 -9 5 -26 6 -38 4z m-60 -365 c16 -20 22 -38 21 -65 -3 -48 -14
-114 -22 -127 -4 -5 -8 -18 -9 -28 -2 -10 -12 -38 -23 -62 -11 -24 -20 -48
-20 -54 0 -5 -3 -11 -7 -13 -5 -2 -20 -20 -35 -40 -73 -97 -150 -72 -140 47 2
28 5 60 5 73 1 12 4 22 7 22 3 0 6 10 7 22 2 27 40 123 67 168 52 89 104 108
149 57z"/>
<path d="M4181 1501 c-18 -32 -13 -39 26 -36 54 3 71 -3 68 -28 -1 -12 -3 -22
-4 -22 -2 0 -4 -11 -7 -24 -2 -14 -9 -30 -14 -36 -5 -7 -8 -14 -5 -16 2 -3 -7
-45 -21 -94 -14 -50 -27 -98 -29 -109 -3 -10 -12 -44 -21 -75 -9 -31 -18 -67
-21 -80 -2 -13 -8 -32 -14 -43 -5 -10 -7 -18 -5 -18 3 0 -1 -18 -9 -40 -8 -22
-12 -40 -9 -40 2 0 0 -8 -5 -18 -6 -11 -12 -32 -15 -47 -8 -43 -28 -58 -80
-57 -35 1 -48 -3 -56 -17 -7 -14 -6 -20 3 -23 6 -2 160 -4 341 -4 282 1 330 3
337 16 8 15 48 140 54 170 2 8 11 35 19 59 20 54 20 71 1 71 -13 0 -55 -75
-55 -99 0 -6 -4 -11 -10 -11 -5 0 -10 -5 -10 -12 0 -6 -15 -30 -32 -54 -31
-41 -82 -74 -138 -90 -35 -10 -250 -8 -261 3 -5 5 4 54 22 118 17 61 32 119
34 130 2 11 8 32 14 48 6 15 8 27 5 27 -2 0 0 8 5 18 6 11 12 30 15 43 10 49
15 67 26 105 6 22 20 73 31 114 36 137 37 137 117 135 28 -1 42 3 42 12 0 7 0
15 0 18 0 3 -2 4 -3 3 -2 -2 -10 2 -18 9 -9 7 -20 9 -29 3 -9 -5 -19 -5 -27 2
-7 6 -13 6 -13 1 0 -5 -9 -9 -20 -9 -11 0 -20 4 -20 9 0 6 -5 6 -12 1 -16 -11
-39 -11 -55 -1 -7 5 -13 4 -13 0 0 -5 -9 -9 -20 -9 -11 0 -20 4 -20 9 0 6 -5
6 -12 1 -15 -11 -39 -11 -55 -1 -7 5 -16 0 -22 -12z"/>
<path d="M5050 1481 c0 -5 -8 -11 -18 -13 -13 -4 -19 -16 -20 -47 -3 -38 0
-43 30 -55 35 -15 62 -8 84 22 12 17 6 68 -10 80 -17 14 -66 24 -66 13z"/>
<path d="M5869 1464 c-5 -6 -9 -16 -8 -20 1 -5 0 -11 -1 -14 -2 -5 -6 -23 -13
-55 -3 -11 -13 -46 -22 -79 -9 -32 -18 -64 -19 -70 -1 -6 -5 -17 -10 -25 -7
-11 -10 -11 -17 0 -6 9 -9 10 -9 2 0 -7 -12 -11 -27 -10 -22 2 -28 -2 -28 -18
0 -17 6 -19 33 -17 36 4 38 -2 21 -62 -6 -21 -12 -46 -14 -55 -2 -9 -12 -46
-23 -83 -11 -37 -17 -70 -14 -73 3 -3 1 -5 -5 -5 -5 0 -10 -6 -11 -12 0 -7 -3
-40 -6 -74 -6 -52 -3 -65 17 -95 21 -31 27 -34 71 -33 39 0 51 5 72 29 27 32
51 79 63 127 1 4 6 21 11 38 8 27 6 30 -12 30 -12 0 -19 -3 -15 -6 11 -11 -45
-129 -75 -157 -26 -25 -31 -26 -44 -12 -8 8 -15 23 -16 32 0 28 10 81 18 94 4
7 9 22 10 33 2 12 15 64 30 116 14 52 28 102 29 110 2 8 4 16 5 18 3 2 7 18 9
31 0 5 28 10 61 10 65 0 80 5 80 25 0 8 -16 13 -47 13 -83 2 -82 1 -76 26 3
12 10 28 16 35 5 6 7 12 4 12 -2 0 4 33 15 73 11 39 20 77 22 82 1 6 5 15 8
20 4 6 4 16 0 21 -10 15 -70 13 -83 -2z"/>
<path d="M2295 1210 c-3 -4 -14 -6 -24 -3 -10 3 -39 -4 -63 -15 -76 -35 -143
-111 -180 -208 -18 -47 -22 -172 -6 -191 6 -7 7 -13 4 -13 -19 0 41 -80 73
-98 35 -19 106 -26 126 -12 6 4 21 10 35 13 31 8 96 69 132 123 78 120 71 320
-14 374 -40 25 -77 39 -83 30z m46 -63 c19 -24 20 -133 0 -207 -18 -69 -62
-170 -74 -170 -6 0 -8 -3 -4 -6 9 -9 -25 -45 -57 -59 -30 -13 -66 -9 -66 6 0
5 -6 9 -14 9 -34 0 -29 176 8 262 4 9 8 23 10 30 3 22 62 122 82 139 38 33 86
31 115 -4z"/>
<path d="M3410 1206 c-30 -7 -63 -16 -73 -22 -31 -18 -107 -96 -107 -110 0 -8
-4 -14 -9 -14 -8 0 -40 -66 -48 -100 -11 -47 -9 -140 4 -180 16 -47 58 -100
80 -100 7 0 13 -4 13 -9 0 -11 107 -6 140 7 58 22 161 149 176 217 3 11 8 31
11 45 8 35 10 93 4 105 -3 5 -6 16 -7 25 -5 29 -10 45 -22 67 -13 23 -59 60
-83 65 -8 2 -16 6 -19 9 -3 3 -30 1 -60 -5z m78 -56 c22 -23 23 -31 18 -110
-8 -125 -49 -241 -108 -306 -25 -27 -39 -34 -69 -34 -30 0 -42 6 -55 25 -18
27 -27 142 -12 151 5 3 6 9 4 13 -6 9 27 123 46 161 58 118 124 156 176 100z"/>
<path d="M4950 1206 c-60 -26 -73 -42 -142 -183 -14 -28 -14 -32 -1 -37 8 -3
16 -6 17 -6 1 0 15 28 31 63 16 34 33 65 39 69 6 4 7 8 3 8 -5 0 5 12 22 26
46 38 65 27 57 -33 -3 -26 -12 -50 -19 -55 -6 -4 -9 -8 -5 -8 4 0 -6 -28 -21
-62 -30 -69 -44 -100 -45 -108 -1 -3 -4 -9 -7 -15 -3 -5 -6 -42 -7 -82 0 -64
2 -74 25 -97 20 -20 32 -25 61 -21 20 2 39 10 44 17 4 7 8 9 8 4 0 -6 11 6 25
25 13 19 29 40 35 46 6 7 11 15 11 18 0 2 9 25 20 50 19 43 19 65 -2 65 -5 0
-14 -12 -20 -27 -20 -55 -54 -116 -66 -120 -7 -3 -11 -8 -8 -13 6 -10 -44 -32
-56 -25 -14 9 -11 63 6 96 9 16 13 33 10 38 -2 5 2 12 10 15 8 3 14 9 13 13 0
4 4 22 11 38 39 93 48 128 49 186 0 47 -4 69 -17 84 -29 34 -53 43 -81 31z"/>
<path d="M5455 1210 c-4 -6 -10 -8 -14 -6 -16 10 -78 -15 -111 -44 -18 -16
-30 -30 -26 -30 5 0 3 -7 -4 -15 -16 -20 -20 -104 -6 -130 13 -23 32 -45 40
-45 7 0 47 -34 99 -82 35 -33 39 -42 33 -70 -3 -18 -7 -38 -8 -45 -3 -26 -148
-67 -148 -42 0 5 -7 6 -14 3 -24 -9 -66 37 -60 64 6 20 14 26 31 20 4 -2 10
10 14 27 6 21 4 34 -8 47 -40 45 -101 1 -97 -70 3 -43 38 -102 61 -102 7 0 13
-5 13 -11 0 -5 4 -8 9 -4 5 3 12 1 15 -4 6 -9 104 -7 143 2 60 15 131 104 120
148 -3 10 -1 21 4 25 21 13 -27 70 -116 136 -69 51 -83 69 -78 100 10 62 41
88 116 93 15 1 27 -2 27 -7 0 -5 4 -7 9 -3 5 3 19 -7 30 -21 l21 -26 -25 -20
c-28 -22 -32 -45 -12 -73 21 -28 82 -13 95 23 15 44 -22 132 -56 132 -6 0 -12
5 -14 10 -2 6 -16 13 -32 16 -16 3 -33 7 -37 10 -4 2 -10 0 -14 -6z"/>
</g>
</svg>
